<svg width="112" height="177" viewBox="0 0 112 177" fill="none" xmlns="http://www.w3.org/2000/svg">
<path fill-rule="evenodd" clip-rule="evenodd" d="M51.4371 58.1194C46.6531 60.4794 46.0541 62.9774 46.0541 80.5584V96.4864L43.1921 95.9144C39.4341 95.1624 34.5101 97.7534 32.5711 101.503C30.7001 105.122 30.4151 136.427 32.1781 144.737C34.6971 156.608 43.3951 167.632 54.5541 173.097C60.1351 175.831 61.3581 176.036 72.0541 176.036H83.5541L90.9211 172.036C99.2781 167.499 104.769 161.852 108.793 153.657C111.436 148.276 111.568 147.293 111.87 130.619C112.044 121.039 111.943 112.229 111.645 111.041C111.346 109.852 109.988 107.678 108.626 106.208C106.641 104.067 105.246 103.536 101.602 103.536H97.0541V96.9864C97.0541 92.9974 96.4421 89.2534 95.4881 87.4084C93.6861 83.9254 87.9231 81.1014 84.4121 81.9824C82.5041 82.4614 82.0541 82.1794 82.0541 80.5054C82.0541 74.5734 75.4461 68.8084 69.9161 69.9144C67.3711 70.4234 67.0541 70.2064 67.0541 67.9614C67.0541 64.1834 64.3911 59.7624 61.0871 58.0534C57.4201 56.1574 55.3871 56.1714 51.4371 58.1194ZM60.0821 65.5884C60.6251 66.6034 61.0541 76.9164 61.0541 88.9704V110.536H64.0541H67.0541V94.7364C67.0541 83.7804 67.4221 78.5684 68.2541 77.7364C70.0911 75.8994 73.8621 76.3084 75.0191 78.4704C75.6011 79.5584 76.0541 86.9974 76.0541 95.4704V110.536H79.0541H82.0541V100.736C82.0541 90.3324 82.7411 88.5364 86.7191 88.5364C90.2531 88.5364 91.0541 91.4814 91.0541 104.47V116.536H94.0541C96.5181 116.536 97.0541 116.125 97.0541 114.236C97.0541 111.316 98.8211 109.536 101.719 109.536C105.609 109.536 106.21 112.474 105.871 129.845C105.565 145.481 105.453 146.235 102.611 151.844C92.9351 170.941 67.2261 176.582 50.8201 163.208C39.7141 154.155 37.0831 146.326 37.0661 122.286C37.0551 106.663 37.1941 105.396 39.1271 103.463C40.9931 101.597 41.4181 101.534 43.3771 102.833C45.4421 104.203 45.5681 105.104 45.8291 120.407L46.1041 136.536H49.0791H52.0541V101.093C52.0541 66.1424 52.0831 65.6294 54.1691 64.1684C56.5941 62.4704 58.6811 62.9714 60.0821 65.5884Z" fill="black"/>
<path fill-rule="evenodd" clip-rule="evenodd" d="M50.296 28.1114C37.165 30.7384 27.002 43.1994 27 56.6734C26.999 63.3624 28.544 69.0814 30.347 69.0574C33.13 69.0204 34.094 67.4514 33.038 64.6744C31.669 61.0744 31.717 53.7454 33.14 48.9944C34.657 43.9314 39.124 38.6694 44.658 35.4264C50.619 31.9324 60.478 31.6534 66.499 34.8074C77.295 40.4634 83.041 52.4644 80.012 63.0274C79.015 66.5034 79.81 68.0194 82.649 68.0574C84.272 68.0784 86.341 58.6554 85.723 54.0544C84.965 48.4024 80.578 39.5004 76.8 35.9504C70.081 29.6354 59.023 26.3654 50.296 28.1114Z" fill="#0693A5"/>
<path fill-rule="evenodd" clip-rule="evenodd" d="M40.5174 9.23219C18.3601 16.8714 3.66689 40.7465 6.83677 63.9568C8.41041 75.4792 12.4372 84.9642 15.5589 84.4953C20.3773 83.7715 21.6799 80.8402 19.1942 76.3071C15.9718 70.4305 14.3289 57.7944 15.6782 49.2731C17.1171 40.192 23.6259 30.0685 32.461 23.1698C41.9776 15.7375 59.0125 12.9188 70.1989 16.9239C90.2569 24.1064 103.05 43.4162 100.284 62.33C99.3732 68.5541 101.109 70.977 106.042 70.3692C108.862 70.0204 110.232 53.298 108.076 45.5191C105.43 35.9629 101.477 25.7345 88.3354 16.4499C75.1939 7.16531 55.2434 4.15496 40.5174 9.23219Z" fill="#09B2D1"/>
</svg>
