<svg width="71" height="72" viewBox="0 0 71 72" fill="none" xmlns="http://www.w3.org/2000/svg">
<path d="M24.398 0.831543H45.9752C65.6842 0.831543 70.3366 5.52065 70.3366 25.2296V46.8068C70.3366 66.5157 65.6475 71.1682 45.9386 71.1682H24.3614C4.65248 71.1682 0 66.4791 0 46.7702V25.1929C0 5.52065 4.68911 0.831543 24.398 0.831543Z" fill="#5181B8"/>
<mask id="mask0_585_105" style="mask-type:luminance" maskUnits="userSpaceOnUse" x="0" y="0" width="71" height="72">
<path d="M24.398 0.831543H45.9752C65.6842 0.831543 70.3366 5.52065 70.3366 25.2296V46.8068C70.3366 66.5157 65.6475 71.1682 45.9386 71.1682H24.3614C4.65248 71.1682 0 66.4791 0 46.7702V25.1929C0 5.52065 4.68911 0.831543 24.398 0.831543Z" fill="white"/>
</mask>
<g mask="url(#mask0_585_105)">
<path d="M-1.83203 -1H72.168V73H-1.83203V-1Z" fill="#5181B8"/>
</g>
<path fill-rule="evenodd" clip-rule="evenodd" d="M57.588 25.0465C57.9177 23.9475 57.588 23.1782 56.0494 23.1782H50.9207C49.6018 23.1782 49.0157 23.8743 48.686 24.6436C48.686 24.6436 46.085 31.0178 42.385 35.1208C41.1761 36.3297 40.6632 36.696 40.0038 36.696C39.6741 36.696 39.1979 36.3297 39.1979 35.2307V25.0465C39.1979 23.7277 38.8315 23.1782 37.7325 23.1782H29.6731C28.8672 23.1782 28.3543 23.801 28.3543 24.3505C28.3543 25.596 30.186 25.8891 30.4058 29.3327V36.8792C30.4058 38.5277 30.1127 38.8208 29.4533 38.8208C27.7315 38.8208 23.482 32.4465 20.9909 25.1198C20.4781 23.7644 20.0018 23.1782 18.683 23.1782H13.5543C12.089 23.1782 11.7959 23.8743 11.7959 24.6436C11.7959 25.999 13.5177 32.7396 19.8919 41.6416C24.1414 47.7228 30.1127 51.0198 35.5345 51.0198C38.7949 51.0198 39.1979 50.2871 39.1979 49.0416V44.4257C39.1979 42.9604 39.4909 42.6673 40.5533 42.6673C41.3226 42.6673 42.6048 43.0337 45.6454 45.9644C49.1256 49.4446 49.7117 51.0198 51.6533 51.0198H56.782C58.2474 51.0198 58.9801 50.2871 58.5405 48.8584C58.0642 47.4297 56.4157 45.3416 54.2177 42.8505C53.0088 41.4218 51.2137 39.9198 50.7008 39.1505C49.9315 38.1614 50.1513 37.7218 50.7008 36.8792C50.7008 36.8426 56.9652 28.0505 57.588 25.0465Z" fill="white"/>
</svg>
